<svg xmlns="http://www.w3.org/2000/svg" xmlns:xlink="http://www.w3.org/1999/xlink" viewBox="0 0 830.14 1051.68"><defs><style>.cls-1{fill:none;}.cls-2{clip-path:url(#clip-path);}.cls-3{fill:#00ea1b;}.cls-4{clip-path:url(#clip-path-2);}.cls-5{clip-path:url(#clip-path-3);}.cls-6{fill:#4d4751;}.cls-7{fill:#726e75;}.cls-8{clip-path:url(#clip-path-5);}.cls-9{fill:#1d7f0f;}.cls-10{clip-path:url(#clip-path-6);}</style><clipPath id="clip-path" transform="translate(-0.06 0)"><rect class="cls-1" width="830.25" height="1172.68"/></clipPath><clipPath id="clip-path-2" transform="translate(-0.06 0)"><rect class="cls-1" x="14.07" y="14.07" width="802.11" height="1146.09"/></clipPath><clipPath id="clip-path-3" transform="translate(-0.06 0)"><rect class="cls-1" x="42.22" y="107.89" width="744.26" height="877.16"/></clipPath><clipPath id="clip-path-5" transform="translate(-0.06 0)"><rect class="cls-1" x="25.02" y="37.53" width="780.22" height="874.03"/></clipPath><clipPath id="clip-path-6" transform="translate(-0.06 0)"><rect class="cls-1" x="25.02" y="35.96" width="780.22" height="870.91"/></clipPath></defs><title>logo</title><g id="Слой_2" data-name="Слой 2"><g id="Слой_1-2" data-name="Слой 1"><g class="cls-2"><path class="cls-3" d="M809.51,394.65c16.57-23.34,34.66-35.61,4.34-65.82-9.61-8.71-21-17.21-34.27-14.42-17-180-166-322.69-364.45-314C216.44-8.13,67.9,134.1,50.67,314.41c-13.24-2.78-24.67,5.71-34.26,14.42-30.32,30.21-12.24,42.5,4.33,65.83-7.57,20.84-.17,89.21-.8,123.86,0,45,33,62,59.58,66.07v178.2l64.16,26V854l108.13,77a27.76,27.76,0,0,1,6.82.83c6.25,1.72,13.68,6.79,16.62,12.78.38.77.76,1.56,1.14,2.36,19.63,8.47,38.47,18,58.95,25.11,16.08,5.59,32.14,10,48.4,14.19h74.68a94.76,94.76,0,0,1,14.39-6.38c18.45-6.52,35.54-15.23,54.2-19.93a27.54,27.54,0,0,1,.75-4.58c2.09-7.61,6.77-12,12.78-16.62A153.62,153.62,0,0,1,557,927.62a27.35,27.35,0,0,1,26.73-.37l102.83-73.19V788.83l64.14-26V584.45c32.58-3.89,61-30.12,59.58-65.94C809.69,483.74,817.09,415.53,809.51,394.65Z" transform="translate(-0.06 0)"/></g><g class="cls-4"><path d="M804.7,339.44c-14.17-12.65-24.43-18.53-36.65,1.95,0,0-5.45-327.09-352.92-327.09S62.2,341.39,62.2,341.39c-12.15-20.48-22.52-14.6-36.69-1.95s-12.72,20.92-9,27,20.33,27.26,20.33,27.26c-11.09,10.69-3.27,70.66-3.27,125.35s59.55,53.58,59.55,53.58V754.31l64.13,26.05v67.37l154,109.68H299.9c11.56,5.26,23.2,10.41,35.44,14.66,16.08,5.59,32.14,10,48.4,14.19h74.68a94.76,94.76,0,0,1,14.39-6.38c22.68-8,43.27-19.4,67.3-22.47H518.89l154-109.68V780.36L737,754.31V572.66s59.54,1.12,59.54-53.58,7.86-114.66-3.27-125.35c0,0,16.63-21.14,20.34-27.26S818.87,352.09,804.7,339.44Z" transform="translate(-0.06 0)"/></g><ellipse cx="415.07" cy="918.19" rx="105.1" ry="92.8"/><ellipse cx="414.4" cy="1002.56" rx="40.38" ry="35.65"/><g class="cls-5"><path class="cls-6" d="M137.82,450.12V386.88c0-12.75.33-17.33-6.53-17.33s-7.51,13.41-7.51,35.94v71.3c0,17.65-.66,70.61,7.19,85.31s13.07,15,13.07,15v-50c0-15.7,5.24-45.44,5.24-45.44s2.31,30,4.25,59.78,3.92,31.71,6.25,27.13,2.61-80.08,2.61-80.08,1.64,46.1,4,58.84,6.1,13.4,6.1,13.4,1.29-109.18,0-142.5-11.77-40.86-12.75-41.85l-3.6,89.89-2.29-94.46-9.8-.66S137.82,449.3,137.82,450.12Zm4.4-254.83,8.59-17.58A4.65,4.65,0,0,0,151,174a4.59,4.59,0,0,0-2.51-2.74l-9.38-4.59-1,1.36q-7.5,10.07-13.89,20.12c-.61.95-1.2,1.89-1.8,2.86l13.33,6.5a4.8,4.8,0,0,0,6.42-2.22Zm45.31-66.39,11.36-11.37a4.8,4.8,0,0,0,0-6.82L196.18,108l-1.47,1.17c-5.92,4.69-11.56,9.6-16.92,14.55l-1.18,1.09,4,4.05a4.85,4.85,0,0,0,6.88,0ZM115.28,372.1C68.4,380.12,51,392.79,45,407.65c-5.21,13-1.57,27.68-1.32,42.4.44,21.13,2.05,46.88,3.13,61.61.5,7.27.86,11.85.86,11.85.53,1.12,1.11,2.21,1.69,3.28,1.37-11.86,2.6-24.36,6.81-35.07,1.56,20.72,1.08,31.91,2.37,47.21a48.14,48.14,0,0,0,5.82,5c1.56-36.65,3.51-73.15,8.78-109.57,0,39.15-.46,77.4,4.26,116.28,1.42.37,5.72,1.56,7.11,1.76,7.25-30.84,6.25-61.84,8.33-92.76a466.91,466.91,0,0,1,4.84,92.18A15.67,15.67,0,0,0,104.5,548C115,537.58,111,495.1,110.37,442.8S115.28,372.1,115.28,372.1Zm668.44,35.63c-6-14.86-23.43-27.54-70.31-35.55,0,0,5.55,18.31,4.91,70.61s-4.58,94.78,5.87,105.23a15.69,15.69,0,0,0,6.85,3.83,467,467,0,0,1,4.84-92.19c2.06,30.92,1.08,61.92,8.33,92.77,1.39-.21,5.69-1.39,7.11-1.77,4.69-38.87,4.22-77.12,4.26-116.28,5.27,36.42,7.19,72.92,8.79,109.58a49.82,49.82,0,0,0,5.82-4.94c1.3-15.3.75-26.48,2.38-47.2,4.2,10.7,5.44,23.2,6.81,35.06.58-1.06,1.16-2.16,1.69-3.28,0,0,.36-4.58.86-11.84,1-14.72,2.62-40.49,3.12-61.61.25-14.75,3.83-29.44-1.37-42.44ZM673.91,598.35c-39.23,0-35.93-66-35.93-66s-11.77,37.92,5.65,64.94,56.39,31,56.39,31a43.47,43.47,0,0,1-39.7-3.76c0,10.47,12.69,19,12.69,36.94v62.5l-49.55,20.51v85L414.37,945.67,205.29,829.42v-85L155.7,723.86v-62.5c0-18,12.69-26.46,12.69-36.93a43.5,43.5,0,0,1-39.71,3.76s39.07-4,56.44-31,5.66-64.93,5.66-64.93,3.26,66-35.94,66-39.55-7.82-39.55-7.82V744.82l79.42,26.07H175V845L414.27,984.86,653.54,845v-74H634l79.42-26.08V590.51s-.33,7.84-39.54,7.84Zm-564-339.42a4.81,4.81,0,0,0,6.25-2.87l6.59-18.33a4.81,4.81,0,0,0-2.89-6.25l-16.34-5.92c-.25.51-.49,1-.72,1.56-3.94,8.44-7.28,16.55-10.1,24.17-.14.36-.26.72-.39,1.08a4.45,4.45,0,0,0,1.24.65Zm576.71-63.64a4.81,4.81,0,0,0,6.45,2.22l13.33-6.5c-.59-1-1.19-1.91-1.8-2.86q-6.39-10-13.89-20.12l-1-1.36-9.37,4.59a4.82,4.82,0,0,0-2.22,6.45ZM662.24,547.44c2.42-12.75,4.06-58.84,4.06-58.84s.33,75.5,2.61,80.08,4.25,2.62,6.25-27.13,4.25-59.81,4.25-59.81,5.24,29.69,5.24,45.44v50s5.23-.33,13.08-15,7.18-67.66,7.18-85.32V405.59c0-22.55-.65-35.94-7.51-35.94s-6.55,4.58-6.55,17.33v63.23c0-.81-6.25-78.94-6.25-78.94l-9.81.66-2.28,94.47-3.6-89.89c-1,1-11.43,8.5-12.75,41.84s0,142.5,0,142.5,3.72-.75,6.13-13.49ZM706,237.73l6.67,18.4a4.8,4.8,0,0,0,6.25,2.88l16.36-5.94a4.48,4.48,0,0,0,1.24-.66c-.13-.35-.25-.71-.39-1.07-2.82-7.63-6.16-15.74-10.1-24.17-.23-.52-.47-1-.72-1.57l-16.42,5.88a4.79,4.79,0,0,0-2.89,6.25ZM570.13,677.66C586.71,637.13,595,582.22,595,582.22A50.62,50.62,0,0,1,575.8,601.4c-13.51,7.81-32.68,38.78-34,65.79,0,0-3.48-49.22,23.08-74.06-.53.11-17.78,4-40.95,37.91-23.52,34.37-40.94,113.82-39.22,144.7v.09s-4.8-25.39-20.05-34.11c0,0-.34,3.13-1.36,8.14-2.9,14.49-11.28,44.75-32.64,61.58,0,0,1.75-36.61-16.34-64.06C396.26,774.83,398,811.44,398,811.44c-21.36-16.83-29.69-47.09-32.64-61.58-1-5-1.36-8.14-1.36-8.14C348.76,750.44,344,775.83,344,775.83v-.09c1.72-30.88-15.7-110.3-39.22-144.7-23.17-33.91-40.42-37.8-40.95-37.91,26.56,24.84,23.08,74.06,23.08,74.06-1.3-27-20.47-58-34-65.79a50.62,50.62,0,0,1-19.18-19.18s8.27,54.91,24.83,95.44c16.44,40.22,50.72,77.84,51.25,78.44-10.81-30.44-4.37-63.39-3.12-69.24v-.15c0-.05.11-.49.17-.74,0,0-1.3,41,22.65,86.72s84.77,63.19,84.77,63.19,60.8-17.42,84.76-63.19S521.7,686,521.7,686a3.3,3.3,0,0,0,.17.74c.06.25,0,.09,0,.15,1.29,5.85,7.73,38.8-3.13,69.24C519.43,755.5,553.71,717.88,570.13,677.66ZM641.21,128.9a4.84,4.84,0,0,0,6.83,0l4-4.05-1.18-1.09c-5.38-5-11-9.83-16.92-14.55L632.51,108l-2.67,2.67a4.83,4.83,0,0,0,0,6.82ZM223.79,539.51c-20.92-35.3-18.62-112.75-18.29-130.08s8.17-73.55,8.17-73.55,2.61,39.55,19.28,64.72c0,0-30.61-109.94,25.15-168.75s69.3-60.14,69.3-60.14S299.51,207,294.73,232.26c.58-1.17,38-76.78,100.65-89.33,0,0-31.37,22.67-38.78,67.56,0,0,20.49-51.87,57.74-67.56,37.26,15.63,57.81,67.56,57.81,67.56-7.41-44.89-38.78-67.56-38.78-67.56,62.69,12.5,100.08,88.16,100.65,89.33-4.78-25.28-32.67-60.56-32.67-60.56s13.52,1.31,69.28,60.14S595.8,400.59,595.8,400.59c16.68-25.18,19.29-64.72,19.29-64.72s7.81,56.25,8.17,73.54,2.62,94.78-18.3,130.08c-13.73,23.17-28.58,26.91-47.14,31.25-9.73,2.23-20.48,4.61-32.61,10-34.75,15.44-44.15,54.33-44.45,55.55,15.84-29.11,52.19-42.53,52.94-42.82-37.64,27.78-55.79,144.25-55.79,144.25-10.93-12.59-17.48-47.4-17.48-47.4s0,26-6.53,49a93,93,0,0,1-19.28,36.43c.09-.31,3-9.62-1.81-27.6S414.73,714,414.35,713.54c-.37.45-13.62,16.59-18.45,34.64s-1.91,27.29-1.81,27.6a93,93,0,0,1-19.28-36.43c-6.53-23.05-6.53-49-6.53-49s-6.55,34.9-17.5,47.4c0,0-18.14-116.5-55.72-144.31.75.28,37.09,13.7,52.93,42.81-.29-1.22-9.7-40.11-44.45-55.54-12.12-5.39-22.87-7.82-32.61-10C252.37,566.41,237.53,562.72,223.79,539.51Z" transform="translate(-0.06 0)"/></g><g class="cls-5"><path class="cls-7" d="M713.41,619.72c-9.64,21.6-24.51,20.61-24.51,20.61V742.62l15.9-3.7L634,770.54l79.42-26.09ZM414.34,964.9,194.7,839.57v-69H175v74.14l239.24,140,239.27-140V770.54H634v69ZM139.79,742.67V640.33s-14.87,1-24.51-20.61V744.45l79.42,26.09-70.81-31.62ZM785,411.13a33.25,33.25,0,0,0-1.36-4.13,53.33,53.33,0,0,0-13.26-13.54C748.82,378.83,723.76,378,723.76,378l2.07,163.87s2.77-74.4,11.6-92.88l8.17,94.54,5.56-14.88-4.69,6.62,4.16-10.71L750,465l5.3-41a432.92,432.92,0,0,1,8.61,50.58c2.62,25.73,3.48,48.64,3.48,48.64l4.14-53.17L780,514l2-2.86c.37-5.58.84-12.71,1.31-20.58.75-13,1.47-27.93,1.75-41.1S788.16,423.08,785,411.13Zm-93.29,55.38-11.46-89.85,3.13,93.46L677.52,428l-4.47,46.57-5-32.73-5.33-34.75L660.43,539l6.64-69.14,2.62,75.9,9-75.57c.24,1.09,6.49,30.87,8.57,45,2.12,14.39,3.39,50.81,3.39,50.81s8.87-14,8.7-42.1c0-6,.22-14.87.58-25.35v-.61c1.31-38.68,3.93-98.81-1.71-119.28Zm-114-34.05h-.07a52.51,52.51,0,0,0-15,.47c-25.58,4.21-60.75,38.61-61.66,39.47l.08-.12v-.08c26.86-39.63,68.67-60.37,68.67-60.37C455,413.4,457.59,520.66,457.59,520.66s-.08-.2-.13-.29c-7.19-16.94.13-36,.13-36a56.28,56.28,0,0,0-10,40.13c-.5-.21-16.95-6.56-17.95-14.39-1.56-12,4.23-14.62,15.14-26s30.06-25,44.87-72.19,74.8-35.17,74.8-35.17C524.9,323.88,479,372.3,459.74,422.9a181.12,181.12,0,0,1-19.53,38.29c-13.62,20.28-25.87,27.07-25.87,27.07s-12.19-6.85-26-27.13a181.65,181.65,0,0,1-19.54-38.23c-19.19-50.6-65.11-99-104.69-46.08,0,0,60-11.94,74.8,35.17s34,60.85,44.89,72.19,16.7,13.93,15.14,26c-1,7.82-17.46,14.18-18,14.39a56.35,56.35,0,0,0-10-40.13s7.32,19,.12,36a2.52,2.52,0,0,1-.12.29s2.62-107.3-112.22-108.83c0,0,41.81,20.74,68.67,60.37v.08s.08.09.08.12c-.89-.86-36.08-35.26-61.66-39.47a52.53,52.53,0,0,0-15-.47c-18,2.19-29.59,15.14-24,39,0,0,4.11-12.41,13.93-14.69,0,0-8.05,12.84,13.53,40,20.47,25.74,40.2,29.07,41.81,29.43-1.8-.25-21.56-3-30.91-11.76,0,0,10.58,19.1,39.64,26.35l.91.22.48.13.47.09.5.11h.36l.32.08.46.09C340.06,548,359,531.64,359,531.64s13.08,9.82,27.12,9.17,28.13-22.57,28.13-22.57,14.06,21.89,28.12,22.57,27.14-9.17,27.14-9.17,19,16.36,50.66,9.82l.47-.09.3-.08h.37l.5-.11.45-.09.5-.13.91-.22c29.05-7.25,39.64-26.35,39.64-26.35-9.37,8.73-29.11,11.51-30.92,11.76,1.56-.36,21.36-3.69,41.83-29.43,21.56-27.15,13.53-40,13.53-40,9.81,2.28,13.92,14.69,13.92,14.69,5.69-23.82-5.95-36.77-23.91-39ZM453.63,559.31v-.18c-8.15,9-11.75,37.44-11.75,37.44a29.49,29.49,0,0,0-4.38-7.72,29.58,29.58,0,0,0-32-10,29.57,29.57,0,0,0-18.84,17.67S383.13,568,375,559.06v.17c6.79,22.47-11.83,86.46-1.74,97.55s25.66,10.64,27.3-6.38a35.73,35.73,0,0,1,13.72-25.19,35.83,35.83,0,0,1,13.84,25.27c1.64,17,17.19,17.5,27.3,6.38S446.9,581.78,453.63,559.31ZM611.76,388.17s20.31,149.35-54,181.85c-9.74,2.23-20.49,4.61-32.61,10C490.4,595.49,481,634.4,480.7,635.62c0,0-5.79,15.92-7.52,23.35,0,0,8.7-13.24,16.78-18.55,0,0-18.75,66.19-12,96.79-10.93-12.6-17.48-47.45-17.48-47.45s0,26-6.55,49.08a92.94,92.94,0,0,1-19.26,36.47c.09-.31,3-9.63-1.81-27.63S414.73,713.46,414.35,713c-.37.46-13.62,16.61-18.47,34.68S394,775,394.09,775.31a93.18,93.18,0,0,1-19.28-36.47c-6.53-23.07-6.53-49.08-6.53-49.08s-6.55,34.85-17.49,47.45c6.74-30.6-12.05-96.79-12.05-96.79,8.07,5.31,16.79,18.55,16.79,18.55-1.75-7.43-7.52-23.35-7.52-23.35-.28-1.22-9.69-40.13-44.44-55.59-12.14-5.4-22.87-7.82-32.61-10-74.32-32.5-54-181.85-54-181.85,6.25,17.2,33.33,34.19,33.33,34.19s-19.64-32.44-9.58-96.4C250.65,262.61,296,209.89,296.67,209c-7.58,14.84-7.58,42.79-7.58,43.54,8.25-33.14,66.86-81.76,66.86-81.76-13.08,22.47-9.27,76.63-9.27,76.63,5.56-49.39,67.66-95.85,67.66-95.85s62.11,46.48,67.65,95.85c0,0,3.82-54.19-9.25-76.63,0,0,58.6,48.64,66.89,81.78,0-.75,0-28.7-7.62-43.54.72.81,46,53.59,56,117,10,64-9.6,96.4-9.6,96.4s27.14-17,33.35-34.2ZM559.24,644.65S541,678.24,540,693.13c0,0-8.65-45.36-4.9-63.48-4,4.46-9.19,13.43-14.71,25.47l-.07.18c-13.36,29.19-28.83,76.22-35.61,120.1,0,0-4.8-25.41-20.05-34.14,0,0-.34,3.13-1.36,8.15-2.9,14.5-6.37,48.48-36.34,71.24,0,0,5.45-46.25-12.64-73.73-18.08,27.48-12.63,73.73-12.63,73.73-30-22.7-33.43-56.74-36.34-71.24-1-5-1.34-8.15-1.34-8.15-15.25,8.73-20,34.14-20,34.14-6.78-43.88-22.25-90.91-35.61-120.1l-.09-.18c-5.52-12-10.66-21-14.69-25.47,3.75,18.16-4.91,63.48-4.91,63.48-1-14.89-19.23-48.48-19.23-48.48-.11,1.31-.19,2.64-.24,4-1.42,39.8,26,81.33,26,81.33-1.3-20.34,11.76-44.5,11.76-44.5s-1.29,41,22.66,86.81a99.35,99.35,0,0,0,16.78,22.9c27.91,28.84,68,40.35,68,40.35s40.08-11.51,68-40.35a98.64,98.64,0,0,0,16.78-22.9c24-45.8,22.65-86.81,22.65-86.81s13.08,24.21,11.77,44.5c0,0,27.37-41.53,26-81.33C559.4,647.34,559.4,646,559.24,644.65ZM45,406.94a34.9,34.9,0,0,0-1.34,4.13c-3.13,11.94-.25,25.13,0,38.31s1,28.15,1.75,41.1c.45,7.82.92,15,1.31,20.58l2,2.86L57.22,470l4.12,53.17s.88-22.91,3.49-48.64A432.53,432.53,0,0,1,73.47,424l5.31,41-.63,59.54,4.11,10.65-4.68-6.62,5.54,14.87,8.17-94.53c8.83,18.48,11.61,92.87,11.61,92.87L105,377.91s-25,.86-46.64,15.48A53.65,53.65,0,0,0,45,406.94Zm115.67,34.87-5,32.73L151.12,428l-5.89,42.1,3.13-93.46-11.44,89.85-6.5-87.88c-5.63,20.47-3,80.6-1.69,119.28v.61c.36,10.48.63,19.34.58,25.35C129.15,552,138,566,138,566s1.25-36.42,3.37-50.81c2.1-14.08,8.35-43.92,8.57-45l9,75.57,2.61-75.9L168.2,539l-2.3-131.85Zm575-192.36c-2.5-6.74-5.42-13.84-8.8-21.2l-.94-2-13,4.48a4.24,4.24,0,0,0-2.71,5.49l6.25,16.39a4.6,4.6,0,0,0,5.79,2.57L736,250.46A5.45,5.45,0,0,0,735.68,249.45ZM703.74,186c-3.76-5.85-7.81-11.75-12.17-17.63-.3-.42-.61-.83-.92-1.25l-6.42,3.13a4,4,0,0,0-1.83,5.35l7.11,14.57a3.83,3.83,0,0,0,2.28,2,3.79,3.79,0,0,0,3-.19l9.71-4.69Zm-54.22-64.45q-6.42-5.86-13.36-11.53L634,108.24l-1.14,1.14a4.16,4.16,0,0,0,0,5.89l9.84,9.86a4.18,4.18,0,0,0,5.9,0l2.32-2.33ZM92.65,250.41l13.75,4.69a4.39,4.39,0,0,0,3.41-.12,4.43,4.43,0,0,0,2.39-2.44l6.25-16.39a4.22,4.22,0,0,0-2.72-5.49l-13-4.49c-.33.69-.64,1.36-.94,2-3.32,7.41-6.28,14.53-8.78,21.25C92.89,249.77,92.76,250.1,92.65,250.41Zm31.49-63.2,9.72,4.69a4,4,0,0,0,5.32-1.83l7.11-14.57a4,4,0,0,0-1.82-5.35L138,167l-.92,1.25c-4.27,6-8.39,11.91-12.08,17.71Zm55-65.68q6.42-5.86,13.36-11.53l2.18-1.76,1.13,1.14a4.14,4.14,0,0,1,0,5.89L186,125.13a4.18,4.18,0,0,1-5.9,0l-2.28-2.33Z" transform="translate(-0.06 0)"/></g><g class="cls-8"><path class="cls-9" d="M687.81,349.84H667.72C659.9,214.39,538,115.22,415.13,115.22S170.35,214.47,162.54,349.84H142.46c0-29.21,35.34-251.91,272.67-251.91S687.81,320.63,687.81,349.84ZM548.06,60.15c-1.56,5.57-4.84,8.09-9.17,8.73-6.07.88-14.21-2-22.85-5.43-16.35-6.54-47.08-14-100.91-14s-84.55,7.41-100.9,14c-8.64,3.46-16.78,6.26-22.85,5.43-4.33-.64-7.58-3.13-9.17-8.73,37.6-14,81.61-22.43,132.92-22.43S510.46,46.18,548.06,60.15Zm20.78,695.21L555.76,771l28.71-57.08c-.76,1.07-50.08,69.29-102,118.64-52.32,49.79-67.36,49.79-67.36,49.79s-15.06,0-67.33-49.79c-51.9-49.35-101.22-117.57-102-118.64l28.76,57.14-13.08-15.64s-9.8,45.59-33.77,68.43A101,101,0,0,0,268,851.55a12.51,12.51,0,0,1,.48-3.55,20.27,20.27,0,0,1,4-7.73,32.05,32.05,0,0,1,12.72-9.19l93.12,80.31-87.78-98.72-34.38-5.48,46.42-4.25S365,883.43,415.1,908.61c50-25.18,112.52-105.67,112.52-105.67L574,807.19l-34.38,5.48-87.78,98.72L545,831.08a32.05,32.05,0,0,1,12.72,9.19,20.41,20.41,0,0,1,4,7.73,12.51,12.51,0,0,1,.48,3.55,101,101,0,0,0,40.32-27.7C578.58,801,568.84,755.36,568.84,755.36Zm236.35-391a12.08,12.08,0,0,0-2.38-5l-9-13.44a14.45,14.45,0,0,0-4.91-5.16,5.87,5.87,0,0,0-1-.42c-2.63-.86-6.25,1-5.89,3.72a39.81,39.81,0,0,1,13.25,20.76L776.2,349l-4.61,5.71A36.06,36.06,0,0,1,788.2,372.9c-.42-1-5.9-2.69-7-3.3a71.43,71.43,0,0,1-6.91-4.33c-4.58-3.29-7.72-7.28-10.94-.18a6.7,6.7,0,0,0,.69,7.26,6,6,0,0,0,1.42,1.08,18.75,18.75,0,0,0,3.84,1.39A33.5,33.5,0,0,1,788.59,390c6.61-4.23,10.66-11.4,14.44-18.28C804.24,369.32,805.53,366.91,805.19,364.31ZM564.78,66.88c-1.8-.78-3.59-1.57-5.41-2.3a85.66,85.66,0,0,1-9.87,13c-11.21,12.39-47.73-6.26-82.37-10.81-19.51-2.58-28.76,1.07-33.29,4.8C480.63,73.7,526,84.16,566.3,104.76c.45-1.08.9-2.22,1.36-3.46,3.26-8.65,6.67-20.56,8.94-29C572.72,70.44,568.84,68.63,564.78,66.88ZM741.23,264c-.61-2-1.28-4-2-6l-22.66,8.23a4.79,4.79,0,0,1-5.67-1.91,3.94,3.94,0,0,1-.5-1l-1.32-3.65c-.11-.26-.2-.56-.31-.84l-9-24.79a4.64,4.64,0,0,1,.13-3.74,4.7,4.7,0,0,1,2.76-2.52l20.84-7.49c-3.65-7.42-7.81-15-12.36-22.78-.29-.53-.62-1.07-1-1.56l-18.68,9.1a4.79,4.79,0,0,1-6.43-2.22l-2.21-4.41-.53-1.09c-.09-.19-.17-.38-.28-.58l-10.7-21.9a4.79,4.79,0,0,1,2.2-6.44l13.2-6.46a319.27,319.27,0,0,0-29.55-32.93c-.23-.25-.48-.48-.73-.72l-7.47,7.48a4.82,4.82,0,0,1-6.81,0l-18.46-18.6a4.8,4.8,0,0,1,0-6.82l5.53-5.55a308.65,308.65,0,0,0-44.58-28.37s-2.13,11.1,4.08,27.62a92.55,92.55,0,0,0,12,21.77c60.38,43.66,104.45,115.75,116.48,224,0,0,23.55,2.13,30.12-29A87,87,0,0,0,749.06,303C749,295.11,746.68,281.32,741.23,264ZM548.33,493.21a50.61,50.61,0,0,0,13.83-40.39c-16.63,4.7-31.38,14.75-43.84,26.74a204.74,204.74,0,0,0-16.67,18.17c-4.53,5.54-8.94,11.2-13.15,17-5.53,7.6,4.16,6.69,9.76,6.63a84.27,84.27,0,0,0,39-9.86A58.51,58.51,0,0,0,556.47,496a36,36,0,0,0,8.22-22.9,35.84,35.84,0,0,1-16.41,20.1ZM67,365.05c-3.27-7.1-6.41-3.13-10.94.17a69.53,69.53,0,0,1-6.91,4.33c-1.14.61-6.62,2.32-7,3.3a36.1,36.1,0,0,1,16.61-18.21L54.07,349l-19,15.72A39.74,39.74,0,0,1,48.3,344c.31-2.76-3.26-4.59-5.89-3.73a5.2,5.2,0,0,0-1,.43,14.32,14.32,0,0,0-4.91,5.2l-9,13.49a12.23,12.23,0,0,0-2.43,5c-.35,2.6.95,5.07,2.2,7.35C31,378.54,35,385.74,41.66,390A33.46,33.46,0,0,1,61,374.78a19.09,19.09,0,0,0,3.85-1.4,6.2,6.2,0,0,0,1.42-1.08,6.68,6.68,0,0,0,.75-7.25ZM363.16,66.72C328.51,71.3,292,89.92,280.79,77.53a85.07,85.07,0,0,1-9.88-13c-1.81.75-3.61,1.56-5.41,2.3-4,1.75-7.93,3.56-11.79,5.44,2.26,8.42,5.67,20.33,8.93,29,.46,1.24.91,2.38,1.36,3.46,40.29-20.6,85.66-31.06,132.44-33.24-4.53-3.73-13.78-7.38-33.28-4.8ZM245.58,76.4A308.71,308.71,0,0,0,201,104.78l5.54,5.55a4.83,4.83,0,0,1,0,6.82L188,135.75a4.84,4.84,0,0,1-6.81,0l-7.47-7.48c-.25.23-.5.47-.74.72a320.2,320.2,0,0,0-29.55,32.92l13.21,6.46a4.81,4.81,0,0,1,2.2,6.45l-10.7,21.9c-.11.2-.19.39-.28.57l-.54,1.1-2.14,4.36a4.8,4.8,0,0,1-6.43,2.33L120.05,196c-.33.55-.66,1.1-1,1.57-4.59,7.73-8.7,15.36-12.36,22.77l20.83,7.56a4.82,4.82,0,0,1,2.89,6.25l-9,24.8c-.11.28-.2.57-.31.84l-1.32,3.64a4.19,4.19,0,0,1-.5,1,4.67,4.67,0,0,1-2.5,1.95,4.73,4.73,0,0,1-3.17,0L91,258.06c-.69,2.05-1.36,4.05-2,6-5.45,17.3-7.81,31.09-7.81,39a86.53,86.53,0,0,0,1.69,17.8c6.56,31.12,30.11,29,30.11,29,12-108.3,56.1-180.36,116.48-224a92.75,92.75,0,0,0,12-21.77C247.7,87.51,245.58,76.4,245.58,76.4ZM341.7,514.78c-4.2-5.79-8.61-11.45-13.14-17A205,205,0,0,0,312,479.62c-12.51-12-27.21-22-43.76-26.73a50.52,50.52,0,0,0,13.83,40.38,35.85,35.85,0,0,1-16.41-20A36,36,0,0,0,273.8,496,58.47,58.47,0,0,0,293,511.43a84.39,84.39,0,0,0,39,9.86C337.56,521.41,347.23,522.32,341.7,514.78Z" transform="translate(-0.06 0)"/></g><g class="cls-10"><path class="cls-3" d="M684,348.13H671.73c-8-137.64-131.72-238.28-256.58-238.28S166.51,210.55,158.54,348.13H146.27C151,299.52,195.62,104.44,415.06,100,634.63,104.44,679.28,299.52,684,348.13Zm-136-289.72a13.23,13.23,0,0,1-3.13,5.82c-7-4.7-26-9.39-26-9.39,4.68,0,16.31,3,17,3.22-5.31-4-21.88-10.18-55-14.48a522.79,522.79,0,0,0-65.82-3.88,522.84,522.84,0,0,0-65.83,3.88c-33.09,4.3-49.67,10.45-55,14.48.72-.18,12.32-3.22,17-3.22,0,0-19,4.69-26,9.39a13.31,13.31,0,0,1-3.12-5.82C319.81,44.46,363.82,36,415.13,36S510.46,44.46,548.06,58.41Zm237.8,351.88a64.41,64.41,0,0,0-11.33-9.71c11.89,10.94,10.49,27.26,9.83,38.13s-1.25,35.15-1.25,35.15L772,435.69l-2.83,22-14.07-45.8,14.34,58.55,2.92-30.21,11.75,49.45c.75-13,1.48-27.94,1.75-41.11S789,422.32,785.86,410.29Zm-225.8,233.6s-18.25,33.6-19.24,48.49c0,0-8.65-45.36-4.9-63.49-4,4.38-9,13.19-14.47,25,1.56-3,7.92-15.64,12-18.37,0,0-2.76,32.23,7.6,59.07,0,0,7.17-31.87,19.24-46.74,0-1.35-.13-2.67-.24-4ZM484.93,786.12c-.18-15.88-17.71-36-17.71-36,3.56,24.59-8.88,45.36-21.33,59.3,19.81-18,23.17-44.34,23.17-44.34,6.49,12.32.27,35.41,0,36.36,9.58-18.58,1.4-42.67,1.22-43.15,9.91,11,14.65,27.81,14.65,27.81Zm-11.54-79c-6.87-7-12.94-28.15-12.94-28.15v.14c.1,7.46,14.18,37.37,14.18,37.37a64.14,64.14,0,0,1-1.24-9.36ZM446.05,726c-1.57,12.86-8,32.44-8,32.44-2.73-30.28-22.25-45.64-22.86-46.12.45.56,13.63,16.67,18.46,34.67s1.89,27.33,1.79,27.64C442.26,762.15,445.12,736.39,446.05,726Zm74.13-396.63c4.5-3.27,25.93-6.58,25.93-6.58-55.89,0-70.17,47.23-70.59,48.72.94-1.88,40.27-79.64,103.61-14.37-24.07-36-58.15-27.92-58.84-27.77ZM442.26,436.46a91,91,0,0,1-27.22,51,66.06,66.06,0,0,0,13.67-11.67A124.87,124.87,0,0,0,441,460.34c9.18-27.93,17.19-137.85,74.81-172-60.35,34.14-68.41,116.84-73.48,148Zm120.33,117.7c10.44-8.18,16.22-24,16.58-25-8.29,19.6-27.14,29.19-59.52,38-31.86,8.77-38.32,36.62-38.46,37.54,6.25-12.25,14.63-22.06,24.27-25.36,23-7.82,53.73-13.09,76.17-37.74A83.67,83.67,0,0,0,595,519.83C587.33,536,565.87,551.86,562.59,554.16ZM61.1,457.73l-2.83-22L47.16,473.93s-.61-24.26-1.26-35.14-2.13-27.2,9.82-38.21a65.57,65.57,0,0,0-11.33,9.71c-3.12,11.95-.23,25.12,0,38.32s1,28.15,1.76,41.11l11.76-49.45,2.91,30.21,14.33-58.55Zm247.72,196c-5.44-11.81-10.51-20.61-14.48-25,3.76,18.15-4.89,63.48-4.89,63.48-1-14.89-19.24-48.49-19.24-48.49-.11,1.32-.19,2.65-.24,4,12.07,14.88,19.23,46.74,19.23,46.74,10.37-26.84,7.59-59.06,7.59-59.06,4.11,2.87,10.5,15.5,12,18.52ZM363.05,750s-17.55,20.12-17.71,36c0,0,4.69-16.85,14.62-27.81-.16.48-8.35,24.57,1.21,43.15-.25-1-6.45-24,0-36.37,0,0,3.36,26.33,23.19,44.33-12.42-13.86-24.92-34.57-21.31-59.15Zm-6.17-43a63.07,63.07,0,0,1-1.24,9.38s14.07-29.9,14.16-37.37v-.14s-6.05,21.23-12.92,28.25Zm58.24,5.25c-.61.49-20.14,15.85-22.86,46.13,0,0-6.46-19.58-8.05-32.44.92,10.37,3.81,36.13,10.64,48.63-.09-.32-3-9.64,1.81-27.64s18-34,18.46-34.55ZM284.05,322.75s21.43,3.31,25.91,6.58c-.67-.16-34.75-8.21-58.93,27.76,63.34-65.27,102.67,12.52,103.61,14.38-.44-1.43-14.72-48.66-70.59-48.66ZM387.9,436.39c-5.08-31.28-13.13-113.94-73.59-148.09,57.57,34.13,65.63,144,74.81,172.06a122.32,122.32,0,0,0,12.33,15.47,65.71,65.71,0,0,0,13.67,11.66,91,91,0,0,1-27.22-51.1ZM310.57,567.22c-32.39-8.82-51.14-18.41-59.52-38,.36,1,6.14,16.77,16.58,25-3.25-2.3-24.71-18.15-32.38-34.41a84,84,0,0,0,13.38,21.75c22.45,24.65,53.13,29.89,76.16,37.74,9.66,3.3,18,13.11,24.29,25.36C348.89,603.76,342.48,575.91,310.57,567.22ZM714,200.59,690.74,211l22.52-6.09-18.38,7.82,4,11.78,23.52-8.12c-2.6-5.22-5.39-10.49-8.44-15.79Zm28.86,67-30.49,5.66,29.15-.16-25,8.39s4.41,14,7.82,27.71a82.65,82.65,0,0,1,1.8,26.88s12-5.18,21.95-21.45a91.93,91.93,0,0,0,.89-13.37C749,294.2,747.13,282.39,742.82,267.58ZM661.31,131.17l-9.17,10.37,12,18.24c-.59-.58-19.52-18.77-24.18-23.46s-18-19.24-19.23-24.14c-.63-2.66,3-7.11,6.53-10.65a307.06,307.06,0,0,0-42.62-26.87s-1.65,8.66,2.25,22.07a128.87,128.87,0,0,1,28.52,20.58c-.56-.79-9.73-13.43-15.62-15.89,1.17.39,10.94,3.93,19.59,15,9.38,11.81,18.76,22.52,25.82,30.05s16.85,23,22.89,19.77c2.38-1.28,8.94-5.18,16-9.39a319.82,319.82,0,0,0-22.85-25.68Zm-96.44-66-3,9c.42-.47,6.16-5.75,6.16-5.75l-5.85,19,6.75,4-7.07-2.94L560.34,93q4.21,1.89,8.22,4.19c3-8.37,6-18.91,8.05-26.59C573.2,68.93,568.66,66.85,564.87,65.2ZM805.25,362.58a12.1,12.1,0,0,0-2.37-5l-9.11-13.44c-.6-.87-1.22-1.77-1.89-2.6-.85,1.13-1.24,2.19-.77,3,1.88,3.4,11.5,15,10.74,20.92s-8.58,15.64-8.82,16c.13-.27,4.08-8.17,4.38-10.62s-11.77-12.38-12.71-13.13c.63.72,7.29,8.34,8,12.95a16.33,16.33,0,0,1-.65,8.29s-12.79-4.69-19.76-4.69a33.69,33.69,0,0,1,16.26,14.08c6.61-4.23,10.65-11.4,14.44-18.29,1.25-2.44,2.54-4.85,2.2-7.43ZM438,886.39c29.43-25.24,72.09-65.92,78-79.63-7.13,8-14.74,18.09-36.62,38.73-23.36,22.09-64.23,48.93-64.23,48.93s-40.86-26.84-64.24-48.93c-21.88-20.64-29.47-30.78-36.6-38.73,5.88,13.71,48.45,54.39,78,79.63-.94-.62-40.63-29.71-53.06-42.84,22,23.46,50.57,50.52,75.93,63.3,25.37-12.78,53.93-39.79,75.94-63.3C478.58,856.74,439,885.77,438,886.39ZM551.89,467.21c-18,.44-38.9,27.17-39.54,28,6.25-3.58,19.86-1.23,19.86-1.23-20.92.81-36.33,21.42-36.33,21.42C555.81,507.12,551.89,467.21,551.89,467.21ZM139.49,211.05l-23.19-10.4c-3,5.3-5.85,10.56-8.43,15.64l23.44,8.12,4-11.78-18.39-7.82ZM117.94,273.3l-30.51-5.66c-4.3,14.81-6.25,26.59-6.25,33.66a93.36,93.36,0,0,0,.89,13.37c9.91,16.27,22,21.45,22,21.45a81.48,81.48,0,0,1,1.8-26.87c3.43-13.75,7.81-27.72,7.81-27.72l-25-8.38ZM245.58,74.66A308,308,0,0,0,203,101.53c3.5,3.54,7.16,8,6.53,10.65-1.14,4.9-14.55,19.55-19.28,24.22s-23.6,22.8-24.18,23.46l12.11-18.32L169,131.17a319.73,319.73,0,0,0-22.91,25.62c7.1,4.26,13.66,8.15,16,9.39,6,3.23,15.8-12.25,22.88-19.77s16.52-18.15,25.83-30c8.74-11.08,18.43-14.61,19.6-15-5.86,2.45-15,15.09-15.63,15.89a129.42,129.42,0,0,1,28.54-20.57c3.92-13.41,2.25-22.07,2.25-22.07Zm22.77,13.89-7.07,2.94,6.76-4-5.85-19s5.74,5.28,6.14,5.75l-2.94-9c-3.78,1.65-8.32,3.73-11.7,5.39,2.06,7.65,5.06,18.19,8.05,26.59q4-2.3,8.22-4.19ZM38.22,378.87a16.34,16.34,0,0,1-.65-8.29c.71-4.62,7.37-12.24,8-12.95-.94.75-13,10.71-12.72,13.12s4,9.79,4.34,10.56c-.69-.86-8.06-10.3-8.78-15.91-.77-5.9,8.87-17.52,10.75-20.91.45-.83,0-1.9-.77-3-.68.83-1.29,1.72-1.89,2.59l-9.06,13.49a12,12,0,0,0-2.42,5c-.35,2.58.95,5.06,2.2,7.34C31,376.8,35,384,41.66,388.2a33.69,33.69,0,0,1,16.25-14.07C51,374.2,38.22,378.87,38.22,378.87ZM298,494s13.66-2.35,19.86,1.23c-.64-.84-21.52-27.57-39.54-28,0,0-3.92,39.91,56,48.2.13,0-15.35-20.61-36.25-21.42ZM727.73,227.38l-8.58,2.94a3.71,3.71,0,0,0-2.36,4.82l5.48,14.36a4.05,4.05,0,0,0,5.08,2.25l9.17-3.13c-2.51-6.77-5.43-13.87-8.79-21.24Zm-35.32-59.91-3.53,1.73a3.51,3.51,0,0,0-1.57,4.69l6.25,12.75a3.5,3.5,0,0,0,4.69,1.56l6.41-3.13C700.82,179.25,696.75,173.36,692.41,167.47ZM637,109.1a3.27,3.27,0,0,0-.65,2.22,3.21,3.21,0,0,0,1,2.1l7.81,7.82a3.32,3.32,0,0,0,4.69,0l.58-.58Q643.91,114.77,637,109.1ZM111.11,230.32l-8.57-2.94c-3.37,7.37-6.25,14.47-8.79,21.21l9.17,3.13a4.05,4.05,0,0,0,5.08-2.25l5.48-14.36a3.72,3.72,0,0,0-2.37-4.79Zm30.28-61.12-3.53-1.73c-4.34,5.89-8.41,11.78-12.16,17.63l6.39,3.13a3.5,3.5,0,0,0,4.69-1.56L143,173.92a3.5,3.5,0,0,0-1.64-4.72Zm51.89-60.1c-4.69,3.77-9.07,7.63-13.35,11.54l.56.58a3.34,3.34,0,0,0,4.69,0L193,113.4a3.24,3.24,0,0,0,.94-2.1A3.29,3.29,0,0,0,193.28,109.1Z" transform="translate(-0.06 0)"/></g><polygon class="cls-3" points="414.26 1051.68 144.15 850.51 154.13 837.12 414.32 1030.9 673.48 839.79 683.39 853.22 414.26 1051.68"/></g></g></svg>