<svg xmlns="http://www.w3.org/2000/svg" viewBox="0 0 1134 373"><defs><style>.cls-1{fill:#fff;}.cls-2,.cls-4{fill:#00b076;}.cls-3,.cls-4{font-size:133.72px;font-family:SFSportsNight, SF Sports Night;}</style></defs><title>Ресурс 2</title><g id="Слой_2" data-name="Слой 2"><g id="Слой_1-2" data-name="Слой 1"><ellipse class="cls-1" cx="566.5" cy="186.5" rx="565.5" ry="185"/><path class="cls-2" d="M2,186.5a62.51,62.51,0,0,0,3.05,19A77.3,77.3,0,0,0,13.27,223a109.88,109.88,0,0,0,11.81,15.39,143,143,0,0,0,14,13.48L41,253.43l1.9,1.52c1.28,1,2.53,2,3.83,3,2.61,1.95,5.21,3.9,7.91,5.72,5.34,3.73,10.87,7.17,16.47,10.49a379.57,379.57,0,0,0,34.75,17.87l9,3.94c3,1.25,6,2.55,9,3.75q9.08,3.63,18.28,6.95c12.27,4.43,24.68,8.46,37.18,12.18,25,7.5,50.43,13.48,76,18.68,6.39,1.31,12.8,2.51,19.21,3.72s12.85,2.25,19.29,3.29c12.88,2.07,25.78,4,38.71,5.65s25.88,3.2,38.85,4.52,26,2.47,39,3.45c52,3.82,104.16,4.87,156.21,3.77s104-4.66,155.57-10.54c12.9-1.45,25.76-3.1,38.61-4.87s25.64-3.78,38.41-5.91q38.28-6.48,76-15.17c25.12-5.82,50-12.55,74.37-20.32a610.86,610.86,0,0,0,71.07-27.45,364.91,364.91,0,0,0,33-17.52c5.25-3.21,10.42-6.51,15.33-10,2.49-1.73,4.87-3.55,7.27-5.35,1.19-.91,2.32-1.86,3.49-2.78l1.74-1.4,1.67-1.44a128,128,0,0,0,12.43-12,92.53,92.53,0,0,0,9.93-13c5.59-9,8.59-18.34,8.59-27.58s-3-18.6-8.57-27.6a93.89,93.89,0,0,0-9.94-13,125.7,125.7,0,0,0-12.43-12q-6.72-5.75-14.16-11c-4.9-3.53-10.07-6.83-15.32-10a362.59,362.59,0,0,0-33-17.52A603.18,603.18,0,0,0,949.5,67.8c-6.1-2-12.23-3.82-18.38-5.64l-9.25-2.69-9.28-2.59Q894,51.81,875.13,47.46q-37.7-8.68-76-15.19-19.15-3.2-38.41-5.91T722.08,21.5Q644.72,12.64,566.5,11c-26-.53-52.08-.58-78.13.06q-19.53.44-39.06,1.38c-13,.58-26,1.4-39,2.37s-26,2.16-38.95,3.46-25.92,2.84-38.86,4.52-25.83,3.59-38.71,5.66-25.71,4.43-38.5,7c-25.56,5.19-51,11.2-76,18.69-12.5,3.72-24.91,7.75-37.18,12.18s-24.39,9.26-36.27,14.65A378.37,378.37,0,0,0,71.08,98.82c-5.6,3.32-11.14,6.76-16.47,10.49a183.72,183.72,0,0,0-15.49,11.84,143.08,143.08,0,0,0-14,13.48A110.47,110.47,0,0,0,13.27,150,77.5,77.5,0,0,0,5.05,167.5,62.63,62.63,0,0,0,2,186.5Zm-2,0a64.68,64.68,0,0,1,3.09-19.62,79.51,79.51,0,0,1,8.38-18,111.34,111.34,0,0,1,12-15.73,145.93,145.93,0,0,1,14.2-13.72q7.52-6.4,15.62-12c5.36-3.8,10.91-7.31,16.54-10.7a382.35,382.35,0,0,1,34.86-18.25,603.87,603.87,0,0,1,73.56-27.7C203.28,43,228.7,36.54,254.3,31,305.51,19.85,357.44,12.31,409.58,7.34S514.12.07,566.5,0,671.27,2.23,723.44,7.09,827.56,19.44,878.81,30.47c25.62,5.54,51.06,12,76.13,19.7a603,603,0,0,1,73.68,27.61,386.8,386.8,0,0,1,35,18.24c5.64,3.39,11.22,6.9,16.61,10.71a196.31,196.31,0,0,1,15.69,12.07,145.31,145.31,0,0,1,14.31,13.77,112.08,112.08,0,0,1,12.12,15.85,80.36,80.36,0,0,1,8.51,18.17,64.21,64.21,0,0,1,0,39.82,80.79,80.79,0,0,1-8.51,18.17,112.9,112.9,0,0,1-12.13,15.85,146.47,146.47,0,0,1-14.3,13.78q-7.56,6.42-15.7,12.07c-5.39,3.8-11,7.31-16.61,10.7a380.47,380.47,0,0,1-35,18.24,604.74,604.74,0,0,1-73.68,27.62c-25.07,7.72-50.51,14.15-76.13,19.69-51.25,11-103.21,18.49-155.37,23.38S618.88,373,566.5,373s-104.76-2.4-156.92-7.34S305.51,353.15,254.3,342c-25.6-5.58-51-12-76.05-19.8a603.92,603.92,0,0,1-73.56-27.71,379.86,379.86,0,0,1-34.86-18.25c-5.63-3.39-11.18-6.89-16.54-10.7a197.2,197.2,0,0,1-15.62-12,147.12,147.12,0,0,1-14.2-13.72,111.91,111.91,0,0,1-12-15.73,79.51,79.51,0,0,1-8.38-18A64.68,64.68,0,0,1,0,186.5Z"/><path class="cls-2" d="M837.22,209.36c-7.45,0-14.89,0-22.33,0a17.91,17.91,0,0,1-3-.23c-4.2-.73-6.18-3.52-5.57-7.75a10.72,10.72,0,0,1,10.44-9.22c4.33-.07,8.67,0,13,0a10,10,0,0,1,8,3.55,3.41,3.41,0,0,0,3,1.26c5.49,0,11-.13,16.47.14,8.41.41,15.1-2.94,20.34-9.17a66.94,66.94,0,0,0,14.06-29.14c8.56-38.83-15.78-76.1-54.73-84.06-37.33-7.63-75,17.81-81.91,55.27a69.67,69.67,0,0,0,7.84,47.88c2.51,4.52.29,9.11-4.61,9.63-2.5.26-4.68-.68-5.57-2.91-1.62-4.09-4.2-5.37-8.67-5.95-11.21-1.44-18.43-10.51-18.51-21.84q-.08-13.44,0-26.88c.09-13,9.81-22.51,22.79-22.28,1.52,0,1.78-.82,2.27-1.74,12.58-23.58,32-38.17,58.16-43.27,35.22-6.87,71.12,10.84,87.64,42.9a3.18,3.18,0,0,0,3.37,2.09,21.74,21.74,0,0,1,21.88,21.2q.23,14.41,0,28.83a21.8,21.8,0,0,1-22.34,21.42,2.49,2.49,0,0,0-2.78,1.64c-2.88,6.08-6.1,11.94-10.84,16.85-7.61,7.89-16.77,12-27.82,11.85C851,209.29,844.08,209.37,837.22,209.36Z"/><path class="cls-2" d="M824.63,167.07c-10.83.05-20.23,2-29.62,4a93.83,93.83,0,0,1-13.67,2.1c-4,.23-6.6-1.49-8.57-4.71a36,36,0,0,1-4.61-14.3c-2.28-17.12,2.2-32.31,12.75-46,5.64-7.32,12.53-9.33,21.19-7.29,5.53,1.31,11,2.92,16.67,3.68,7.11.95,13.92-.62,20.72-2.34,4.4-1.11,8.8-2.26,13.42-2.06a13.67,13.67,0,0,1,9.69,4.17c12.69,13.37,18.35,29.22,16.62,47.64a47.73,47.73,0,0,1-2.41,11.84c-3.65,10-6,9.92-14.89,9-7.75-.8-15.26-3-22.95-4.29A113.37,113.37,0,0,0,824.63,167.07Z"/><path class="cls-2" d="M852.48,126.49a10.05,10.05,0,0,1,10.19,10.08,10.19,10.19,0,0,1-10.25,10.31,10.34,10.34,0,0,1-10.15-10.26A10.17,10.17,0,0,1,852.48,126.49Z"/><path class="cls-2" d="M784.44,136.67a10,10,0,0,1,10.08-10.18,10.18,10.18,0,0,1,10.31,10.25,10.33,10.33,0,0,1-10.27,10.14A10.15,10.15,0,0,1,784.44,136.67Z"/><text class="cls-3" transform="translate(123.9 205.17)">CENTRAL</text><text class="cls-3" transform="translate(634.9 309.17)">BOT</text><path d="M845.22,205.36c-7.45,0-14.89,0-22.33,0a17.91,17.91,0,0,1-3-.23c-4.2-.73-6.18-3.52-5.57-7.75a10.72,10.72,0,0,1,10.44-9.22c4.33-.07,8.67,0,13,0a10,10,0,0,1,8,3.55,3.41,3.41,0,0,0,3,1.26c5.49,0,11-.13,16.47.14,8.41.41,15.1-2.94,20.34-9.17a66.94,66.94,0,0,0,14.06-29.14c8.56-38.83-15.78-76.1-54.73-84.06-37.33-7.63-75,17.81-81.91,55.27a69.67,69.67,0,0,0,7.84,47.88c2.51,4.52.29,9.11-4.61,9.63-2.5.26-4.68-.68-5.57-2.91-1.62-4.09-4.2-5.37-8.67-5.95-11.21-1.44-18.43-10.51-18.51-21.84q-.08-13.44,0-26.88c.09-13,9.81-22.51,22.79-22.28,1.52,0,1.78-.82,2.27-1.74,12.58-23.58,32-38.17,58.16-43.27,35.22-6.87,71.12,10.84,87.64,42.9a3.18,3.18,0,0,0,3.37,2.09,21.74,21.74,0,0,1,21.88,21.2q.23,14.42,0,28.83a21.8,21.8,0,0,1-22.34,21.42,2.49,2.49,0,0,0-2.78,1.64c-2.88,6.08-6.1,11.94-10.84,16.85-7.61,7.89-16.77,12-27.82,11.85C859,205.29,852.08,205.37,845.22,205.36Z"/><path d="M832.63,163.07c-10.83.05-20.23,2-29.62,4a93.83,93.83,0,0,1-13.67,2.1c-4,.23-6.6-1.49-8.57-4.71a36,36,0,0,1-4.61-14.3c-2.28-17.12,2.2-32.31,12.75-46,5.64-7.32,12.53-9.33,21.19-7.29,5.53,1.31,11,2.92,16.67,3.68,7.11.95,13.92-.62,20.72-2.34,4.4-1.11,8.8-2.26,13.42-2.06a13.67,13.67,0,0,1,9.69,4.17c12.69,13.37,18.35,29.22,16.62,47.64a47.73,47.73,0,0,1-2.41,11.84c-3.65,10-6,9.92-14.89,9-7.75-.8-15.26-3-22.95-4.29A113.37,113.37,0,0,0,832.63,163.07Z"/><path class="cls-2" d="M860.48,122.49a10.05,10.05,0,0,1,10.19,10.08,10.19,10.19,0,0,1-10.25,10.31,10.34,10.34,0,0,1-10.15-10.26A10.17,10.17,0,0,1,860.48,122.49Z"/><path class="cls-2" d="M792.44,132.67a10,10,0,0,1,10.08-10.18,10.18,10.18,0,0,1,10.31,10.25,10.33,10.33,0,0,1-10.27,10.14A10.15,10.15,0,0,1,792.44,132.67Z"/><text class="cls-4" transform="translate(131.9 201.17)">CENTRAL</text><text class="cls-4" transform="translate(642.9 305.17)">BOT</text></g></g></svg>